<?xml version="1.0" standalone="no"?>
<!DOCTYPE svg PUBLIC "-//W3C//DTD SVG 20010904//EN"
 "http://www.w3.org/TR/2001/REC-SVG-20010904/DTD/svg10.dtd">
<svg version="1.0" xmlns="http://www.w3.org/2000/svg"
 width="616.000000pt" height="616.000000pt" viewBox="0 0 616.000000 616.000000"
 preserveAspectRatio="xMidYMid meet">
<metadata>
Created by potrace 1.14, written by Peter Selinger 2001-2017
</metadata>
<g transform="translate(0.000000,616.000000) scale(0.100000,-0.100000)"
fill="#000000" stroke="none">
<path d="M3087 5895 c-1 -1 -37 -5 -79 -8 -85 -7 -199 -41 -274 -83 -52 -28
-244 -139 -749 -431 -170 -99 -330 -191 -355 -205 -25 -14 -144 -83 -265 -153
-121 -70 -357 -206 -525 -303 -569 -327 -584 -338 -671 -445 -67 -83 -126
-203 -143 -292 -4 -16 -9 -41 -12 -55 -10 -42 -10 -640 0 -640 5 0 158 86 340
192 182 105 344 199 359 207 16 9 36 21 45 26 10 6 121 70 247 143 127 73 237
137 245 142 69 40 269 156 285 164 11 6 82 47 158 91 76 44 146 85 155 90 87
50 690 399 702 406 8 4 53 31 100 57 47 27 146 84 220 127 74 43 218 126 320
185 102 58 277 160 390 225 113 65 216 125 230 132 14 8 39 23 55 33 17 10 33
19 37 19 4 1 9 -144 11 -321 2 -178 7 -339 11 -358 14 -65 65 -185 105 -245
72 -110 162 -188 321 -279 36 -20 72 -41 80 -46 19 -12 823 -476 870 -502 19
-11 51 -29 70 -40 169 -98 517 -300 590 -341 19 -10 72 -41 118 -68 l82 -49
-1 318 c-1 277 -3 326 -20 391 -53 207 -169 356 -368 475 -58 35 -299 175
-536 311 -236 137 -542 313 -680 393 -137 80 -269 155 -292 168 -23 13 -106
61 -185 107 -79 46 -150 86 -158 90 -8 4 -30 16 -49 28 -32 19 -214 124 -391
226 -118 68 -218 100 -358 116 -17 2 -33 3 -35 2z"/>
<path d="M5453 1538 l2 -1253 350 0 350 0 3 1253 2 1252 -354 0 -354 0 1
-1252z"/>
<path d="M3908 2775 c-2 -1 -51 -6 -109 -9 -330 -21 -632 -162 -781 -364 -95
-128 -137 -269 -132 -437 7 -255 125 -426 379 -552 55 -27 188 -78 232 -88 10
-2 61 -16 113 -29 52 -14 107 -27 122 -30 157 -28 393 -93 452 -124 97 -53
133 -123 100 -200 -39 -94 -173 -144 -383 -142 -146 2 -174 4 -311 31 -61 12
-269 77 -285 89 -5 4 -26 13 -45 19 -20 6 -70 31 -112 55 l-76 43 -116 -250
c-80 -175 -112 -254 -105 -263 19 -23 198 -104 315 -143 123 -41 308 -85 404
-96 415 -47 752 -8 989 115 285 148 429 367 429 652 0 345 -197 544 -661 668
-65 17 -125 33 -135 35 -418 85 -519 118 -576 185 -30 37 -39 66 -33 107 20
128 158 195 405 195 185 0 432 -62 616 -154 32 -16 62 -26 67 -21 5 5 56 119
113 253 l105 245 -54 27 c-168 86 -416 153 -639 173 -73 7 -283 14 -288 10z"/>
<path d="M10 1501 l0 -1250 352 2 353 2 0 485 0 485 478 0 477 0 1 -40 c0 -22
0 -241 0 -486 l0 -447 353 0 353 -1 0 1249 0 1250 -353 0 -354 0 1 -392 c0
-216 0 -427 0 -469 l-1 -77 -477 2 -478 1 0 468 0 467 -352 0 -353 0 0 -1249z"/>
</g>
</svg>
